<?xml version="1.0" standalone="no"?>
<!DOCTYPE svg PUBLIC "-//W3C//DTD SVG 20010904//EN"
 "http://www.w3.org/TR/2001/REC-SVG-20010904/DTD/svg10.dtd">
<svg version="1.0" xmlns="http://www.w3.org/2000/svg"
 width="256.000000pt" height="256.000000pt" viewBox="0 0 256.000000 256.000000"
 preserveAspectRatio="xMidYMid meet">
<metadata>
Created by potrace 1.14, written by Peter Selinger 2001-2017
</metadata>
<g transform="translate(0.000000,256.000000) scale(0.100000,-0.100000)"
fill="#000000" stroke="none">
<path d="M2212 2519 c-63 -74 -174 -122 -357 -154 -49 -8 -97 -17 -105 -20 -8
-2 -33 -7 -55 -10 -228 -32 -358 -122 -399 -275 -9 -34 -13 -88 -12 -142 3
-71 9 -98 33 -150 l29 -63 -27 -40 c-23 -33 -47 -88 -75 -174 -3 -10 -17 -1
-45 29 -27 29 -38 48 -33 59 45 105 43 248 -6 347 -55 111 -122 148 -370 199
-91 19 -188 41 -216 50 -62 21 -131 67 -165 110 l-26 34 -21 -62 c-31 -87 -37
-135 -36 -272 3 -363 203 -613 499 -624 76 -2 142 18 213 65 l55 37 34 -39
c19 -21 45 -56 59 -79 25 -43 25 -39 15 -212 -1 -9 -75 -13 -302 -15 l-300 -3
-19 -25 c-14 -18 -20 -41 -20 -82 0 -75 13 -107 50 -119 16 -6 30 -12 30 -14
0 -1 5 -27 10 -56 6 -30 13 -65 15 -79 2 -14 9 -50 15 -80 6 -30 13 -71 16
-90 3 -19 11 -66 19 -105 7 -38 17 -90 21 -115 4 -25 8 -47 9 -50 1 -3 7 -39
15 -80 8 -41 14 -77 15 -80 1 -3 5 -26 9 -53 6 -33 16 -53 34 -67 24 -19 41
-20 467 -20 l442 0 20 23 c19 20 34 74 58 212 3 17 14 82 26 145 11 63 24 138
29 165 5 28 18 100 29 160 11 61 23 122 25 135 2 14 5 28 5 33 1 4 8 7 16 7 9
0 27 11 40 25 22 21 25 33 25 95 0 62 -3 74 -25 95 l-24 25 -296 0 -295 0 5
122 c7 178 21 261 56 329 l20 40 28 -20 c95 -68 255 -88 398 -50 201 53 360
223 424 455 17 60 22 108 23 199 1 156 -11 227 -56 332 l-13 31 -33 -39z"/>
</g>
</svg>
